# xmcd
#
# Track frame offsets:
#	150
#	19526
#	36896
#	70496
#	86135
#	103839
#	129092
#	146647
#	178434
#	202797
#	225287
#	244083
#
# Disc length: 3707 seconds
#
# Revision: 0
# Processed by: cddbd v1.4PL0 Copyright (c) Steve Scherf et al.
# Submitted via: EasyCDDAExtractor 5.0.5.1
#
DISCID=9f0e790c
DTITLE=David Lamar - Live In Taj Mahal
DYEAR=1900
DGENRE=Blues
TTITLE0=Worry
TTITLE1=The Funk Tune
TTITLE2=Brownsville
TTITLE3=Louisiana
TTITLE4=Bad Love
TTITLE5=Love Of My Life
TTITLE6=Tell Me
TTITLE7=Roll Me Up
TTITLE8=Nothing Bad
TTITLE9=High Time
TTITLE10=I've Been Loving You So Long
TTITLE11=Somebody Been Bad
EXTD=
EXTT0=
EXTT1=
EXTT2=
EXTT3=
EXTT4=
EXTT5=
EXTT6=
EXTT7=
EXTT8=
EXTT9=
EXTT10=
EXTT11=
PLAYORDER=
